<svg xmlns="http://www.w3.org/2000/svg" height="95.387" width="453.587" xml:space="preserve"><path style="fill:#040606;fill-opacity:1;fill-rule:nonzero;stroke:none" d="M751.047 664.824c0 30.957-18.84 30.957-40.399 30.957l-1.98 1.614v6.64c0 4.344 2.75 4.735 7.07 4.735 10.2 0 35.309-1.993 53.75-1.993 19.598 0 39.617 1.993 59.239 1.993l1.171-1.219v-10.156l-1.949-1.614h-4.711c-25.523 0-36.898-2.734-36.898-32.148V549.836c0-56.496 10.988-100.781 78.48-100.781 70.219 0 92.969 33.699 92.969 100.027v101.984c0 44.715 0 41.61-34.512 44.715l-1.578 3.145v7.461l1.188 2.383c7.031 0 14.89-1.993 44.332-1.993 16.469 0 37.261 1.993 49.821 1.993l1.56-2.383v-8.211l-2.36-2.395c-28.623 0-38.814-1.57-38.814-21.16v-140.07c0-71.77-42-108.262-113.379-108.262-56.906 0-113 20-113 85.488v153.047" transform="matrix(.13333 0 0 -.13333 0 95.387)"/><path style="fill:#040606;fill-opacity:1;fill-rule:nonzero;stroke:none" d="M1041.01 603.633c0 5.898-.3 7.363-1.48 9.707-2.64 5.019-15.58 15.566-20.58 15.898l-15.59.879c-1.17 0-1.43 2.922-1.43 5.266 0 1.484 0 3.828 1.43 3.828 9.13 0 16.18.574 23.52.574 13.55 0 35-1.14 40.29-1.765l89.08-107.551c13.49-16.477 26.74-31.758 47.93-52.949h1.15v129.375c0 19.355-7.06 22.343-16.47 22.617l-12.63.605c-1.19 0-1.77 2.922-1.77 4.961 0 1.789.89 4.707 2.64 4.707 6.49 0 21.76-1.453 36.16-1.453 13.22 0 27.35 1.453 35.59 1.453 1.44 0 1.76-1.14 1.76-2.363v-5.547c0-1.484-.61-1.758-2.64-1.758h-7.65c-20.26 0-20.26-10.32-20.26-35.293V424.629h-7.1l-158.72 181.355V471.055c0-25.262 3.52-28.211 28.81-29.102 1.17 0 2.07-2.629 2.07-4.98 0-2.344-.32-4.727-1.18-4.727-5.59 0-24.43 1.492-36.74 1.492-14.45 0-20.89-1.492-34.41-1.492-1.76 0-2.06 2.09-2.06 5.899 0 2.648.3 3.808 3.84 3.808 12.31 0 26.44 2.93 26.44 17.93v143.75M1327.75 486.652c0-42.929.87-43.222 29.67-44.699l1.47-2.07v-5.547c0-1.758-4.38-2.09-7.04-2.09-4.12 0-23.82 1.504-35.86 1.504-14.13 0-28.53-1.504-43.81-1.504-1.17.606-1.46 2.383-1.46 5.293.29 3.82.88 4.414 9.4 4.414 20.28 0 21.17 4.406 21.17 26.758v140.527c0 16.75-5.01 20.879-29.69 20.879l-.88 1.426-.58 4.758c.27 3.203 2.92 3.484 4.68 3.484 7.98 0 17.36-1.445 37.35-1.445 14.69 0 32.35 1.445 44.07 1.445l1.5-2.07v-5.242l-1.18-1.778-7.92-.578c-11.79-.879-20.89-2.078-20.89-15.625v-127.84M1400.64 620.117c-3.24 7.922-14.98 9.981-23.22 9.981l-1.77 1.457v7.644l3.24.578c12.34 0 30.27-1.445 36.72-1.445 13.55 0 26.76 1.445 40.31 1.445l.85-.851-.85-8.242-13.83-1.161c-4.7-.293-10-2.05-10-6.476 0-2.352 1.48-6.172 2.64-8.817l33.82-88.214 19.1-43.797c2.07-4.387 2.35-5.254 3.23-5.254.59 0 1.47 1.18 2.64 4.695l42.04 111.399c4.71 12.664 8.24 23.523 7.94 27.058-.28 4.961-1.74 7.61-10.28 8.508l-15.29 1.473-1.77.879v9.132c11.48 0 22.93-1.777 34.39-1.777 9.14 0 28.52 1.777 30.57 1.777l2.37-1.183v-6.778l-2.64-2.05-9.13-.575c-5.87-.293-8.23-3.261-12.36-13.554-27.92-67.309-34.68-88.449-57.01-145.207l-15-38.196c-1.46-4.148-2.04-4.414-4.1-4.414-2.66 0-3.24.871-3.82 2.051l-78.79 189.914M1628.29 609.824c0 19.074-14.42 21.164-31.44 21.164-1.19 0-1.19 1.485-1.19 2.637v3.242c0 2.645 4.99 2.918 15.31 2.918 11.75 0 24.97-1.453 37.31-1.453 11.78 0 23.5 1.453 35.29 1.453h62.02c2.34 0 2.64-2.637 2.64-5.859v-35.879c0-1.172-.58-2.356-2.07-2.356-2.33 0-7.03-.269-7.34 3.235l-.86 9.133c-1.79 18.816-14.71 22.05-31.18 22.05h-30.28c-16.44 0-21.75-3.535-21.75-25.863v-53.219c0-.879 1.78-2.367 2.35-2.367l34.68 1.176c17.65.605 22.64 6.172 27.06 21.785.58 1.746 1.45 2.363 4.68 2.363 2.06 0 3.56-.351 3.56-1.796 0-6.18-1.77-19.708-1.77-29.383 0-15.891 1.77-24.414 1.77-29.407 0-1.765-2.93-3.535-4.72-3.535-2.35 0-4.4.891-4.99 3.848-1.46 7.891-1.46 13.484-2.95 17.598-1.46 4.414-4.99 6.484-13.8 6.789l-41.75.855c-4.12 0-4.12-1.441-4.12-3.492v-70.012c0-21.14 15.58-21.726 35.87-21.726h15.88c15.57 0 26.45.308 33.79 4.722 6.46 3.789 15.58 21.723 18.82 29.075 3.82 0 8.81-.868 8.81-2.918 0-.903-.87-3.235-1.45-4.707l-8.26-29.692c-2.34-7.957-3.81-7.957-7.62-7.957-31.75 0-62.93 1.504-105.56 1.504-9.68 0-34.38-1.504-49.37-1.504-.88 0-1.75 2.942-1.75 4.727 0 2.343.57 4.98 1.75 4.98 25.57 1.192 32.63 3.84 32.63 30.879v136.992M1843.49 545.449c3.85-.301 7.38-.613 11.17-.613 23.53 0 52.94 8.25 52.94 42.937 0 25.84-17.66 42.618-43.52 42.618-19.98 0-20.59-4.696-20.59-13.516zm-26.44 62.617c0 14.668-.58 22.051-19.09 22.051h-12.05c-1.78 0-2.08 3.215-2.08 5.567 0 1.476.88 4.101 2.08 4.101 17.03 0 34.38-.859 51.41-.859 13.55 0 26.76.859 40.31.859 29.97 0 59.35-20 59.35-50.832 0-26.734-24.41-44.676-47.3-48.23v-.567c11.43-2.636 23.51-24.109 26.42-28.789l32.34-49.426c10.31-15.593 17.07-18.523 34.7-19.402l1.77-1.746v-5.605c0-2.61-2.06-2.942-3.24-2.942-6.17 0-15.28.906-19.69.906-7.05 0-14.15-.906-21.17-.906-6.75 0-19.97 19.707-37.35 50.559-19.08 33.828-30.27 52.363-49.65 52.363-2.36 0-5.89 0-10.32-.617v-72.024c0-10.574 0-20.574 14.72-20.574 11.17 0 16.16 0 16.16-2.312 0-5.598-.86-7.395-5.28-7.395-15.28 0-27.92 1.504-40.55 1.504-5.03 0-37.67-1.504-41.76-1.504-1.78 0-2.36 3.82-2.36 6.199 0 2.629 1.17 3.227 7.07 3.508 20.27.891 25.56 3.828 25.56 24.133v141.98M2030.16 539.258c-21.14 12.656-29.66 24.433-29.66 47.305 0 36.777 30 57.335 69.64 57.335 11.17 0 27.05-3.789 37.06-8.214l2.06-36.758v-1.453c0-1.489-2.96-2.051-7.07-2.051-3.83 0-4.39 1.746-4.71 4.668-2.06 19.707-16.17 32.383-37.04 32.383-20 0-35.56-14.114-35.56-32.961 0-21.153 12.92-29.375 42.32-44.949 29.09-15.305 54.37-28.79 54.37-65.559 0-40.012-36.13-60.84-72.89-60.84-12.06 0-32.04 3.809-43.2 8.516-2.33 1.172-3.24 4.992-4.12 11.465l-3.51 27.628c0 1.747 5.86 1.747 7.63 1.747.88 0 1.75-.555 2.35-2.625 6.75-22.336 22.05-35.266 45.56-35.266 20.59 0 40.27 17.93 40.27 37.891 0 19.121-10.86 30.585-26.16 39.687l-37.34 22.051M2205.67 486.652c0-42.929.91-43.222 29.7-44.699l1.48-2.07v-5.547c0-1.758-4.42-2.09-7.05-2.09-4.15 0-23.81 1.504-35.88 1.504-14.1 0-28.5-1.504-43.79-1.504-1.17.606-1.46 2.383-1.46 5.293.29 3.82.88 4.414 9.43 4.414 20.25 0 21.13 4.406 21.13 26.758v140.527c0 16.75-5 20.879-29.68 20.879l-.88 1.426-.59 4.758c.29 3.203 2.93 3.484 4.7 3.484 7.94 0 17.33-1.445 37.33-1.445 14.72 0 32.33 1.445 44.12 1.445l1.46-2.07v-5.242l-1.17-1.778-7.98-.578c-11.74-.879-20.87-2.078-20.87-15.625v-127.84M2364.27 463.73c0-21.777 14.68-21.777 32.91-21.777l1.79-1.445v-4.715c0-3.547-1.5-3.547-6.18-3.547-5.89 0-20.32 1.492-40.87 1.492-16.17 0-41.44-1.492-48.51-1.492-.58 2.09-1.16 3.547-1.16 5.293 0 .906.3 2.664 1.16 3.254l2.99 1.16h3.46c26.77 0 27.93 9.141 27.93 33.527v139.344l-.86 13.508h-39.38c-22.38 0-25.86-14.094-31.47-32.91-.58-1.777-1.74-2.649-3.55-2.649-4.06 0-6.72 1.18-6.72 2.918 0 5.012 3.52 32.348 3.52 55.59 0 1.153 4.12 1.153 8.2 1.153 9.43-12.649 12.38-12.649 25-12.649h109.37c20.55 0 26.43 6.192 33.8 15.305 2.03 0 8.82 0 8.82-2.656 0-2.356-5.89-26.438-6.46-47.629 0-3.203-.86-9.383-2.36-9.383-2.63 0-9.42 1.441-9.42 2.918l-1.15 14.726c-1.19 14.973-8.23 15.266-20.31 15.266h-40.55V463.73M2491.49 609.824c0 19.074-14.4 21.164-31.44 21.164-1.2 0-1.2 1.485-1.2 2.637v3.242c0 2.645 5 2.918 15.32 2.918 11.76 0 24.98-1.453 37.31-1.453 11.77 0 23.53 1.453 35.3 1.453h62c2.34 0 2.66-2.637 2.66-5.859v-35.879c0-1.172-.58-2.356-2.09-2.356-2.3 0-7.03-.269-7.35 3.235l-.86 9.133c-1.77 18.816-14.66 22.05-31.17 22.05h-30.27c-16.45 0-21.76-3.535-21.76-25.863v-53.219c0-.879 1.78-2.367 2.34-2.367l34.7 1.176c17.64.605 22.63 6.172 27.06 21.785.61 1.746 1.47 2.363 4.68 2.363 2.06 0 3.52-.351 3.52-1.796 0-6.18-1.73-19.708-1.73-29.383 0-15.891 1.73-24.414 1.73-29.407 0-1.765-2.91-3.535-4.66-3.535-2.37 0-4.42.891-5.03 3.848-1.42 7.891-1.42 13.484-2.94 17.598-1.47 4.414-4.99 6.484-13.76 6.789l-41.78.855c-4.13 0-4.13-1.441-4.13-3.492v-70.012c0-21.14 15.59-21.726 35.87-21.726h15.85c15.58 0 26.48.308 33.83 4.722 6.52 3.789 15.58 21.723 18.83 29.075 3.82 0 8.82-.868 8.82-2.918 0-.903-.86-3.235-1.47-4.707l-8.25-29.692c-2.35-7.957-3.82-7.957-7.64-7.957-31.74 0-62.93 1.504-105.57 1.504-9.64 0-34.36-1.504-49.36-1.504-.86 0-1.79 2.942-1.79 4.727 0 2.343.65 4.98 1.79 4.98 25.57 1.192 32.64 3.84 32.64 30.879v136.992M2711.66 486.652c0-42.929.91-43.222 29.7-44.699l1.42-2.07v-5.547c0-1.758-4.37-2.09-7.02-2.09-4.14 0-23.8 1.504-35.83 1.504-14.15 0-28.51-1.504-43.81-1.504-1.17.606-1.48 2.383-1.48 5.293.31 3.82.88 4.414 9.42 4.414 20.29 0 21.15 4.406 21.15 26.758v140.527c0 16.75-4.98 20.879-29.69 20.879l-.88 1.426-.57 4.758c.28 3.203 2.91 3.484 4.71 3.484 7.93 0 17.32-1.445 37.29-1.445 14.71 0 32.34 1.445 44.12 1.445l1.44-2.07v-5.242l-1.15-1.778-7.93-.578c-11.78-.879-20.89-2.078-20.89-15.625v-127.84M2864.6 463.73c0-21.777 14.72-21.777 32.96-21.777l1.72-1.445v-4.715c0-3.547-1.48-3.547-6.15-3.547-5.88 0-20.29 1.492-40.82 1.492-16.21 0-41.46-1.492-48.57-1.492-.55 2.09-1.15 3.547-1.15 5.293 0 .906.29 2.664 1.15 3.254l2.97 1.16h3.53c26.74 0 27.91 9.141 27.91 33.527v139.344l-.9 13.508h-39.35c-22.37 0-25.84-14.094-31.44-32.91-.6-1.777-1.79-2.649-3.56-2.649-4.09 0-6.78 1.18-6.78 2.918 0 5.012 3.57 32.348 3.57 55.59 0 1.153 4.12 1.153 8.19 1.153 9.44-12.649 12.34-12.649 25.02-12.649h109.35c20.57 0 26.43 6.192 33.83 15.305 2.03 0 8.81 0 8.81-2.656 0-2.356-5.88-26.438-6.51-47.629 0-3.203-.84-9.383-2.3-9.383-2.66 0-9.43 1.441-9.43 2.918l-1.18 14.726c-1.17 14.973-8.26 15.266-20.33 15.266h-40.54V463.73M733.633 195.488c-3.203 7.918-14.981 9.981-23.192 9.981l-1.777 1.457v7.644l3.254.578c12.293 0 30.211-1.449 36.734-1.449 13.512 0 26.711 1.449 40.258 1.449l.918-.851-.918-8.242-13.808-1.16c-4.692-.293-9.981-2.051-9.981-6.477 0-2.352 1.473-6.172 2.629-8.816l33.793-88.215 19.152-43.797c1.996-4.387 2.336-5.254 3.207-5.254.61 0 1.489 1.18 2.661 4.695l42.015 111.399c4.703 12.664 8.215 23.523 7.965 27.058-.313 4.961-1.789 7.61-10.293 8.496l-15.289 1.485-1.77.879v9.132c11.457 0 22.918-1.781 34.379-1.781 9.11 0 28.532 1.781 30.582 1.781l2.328-1.183v-6.777l-2.636-2.051-9.09-.574c-5.902-.293-8.231-3.262-12.371-13.555-27.91-67.309-34.645-88.449-57.012-145.207L820.344 7.94c-1.422-4.152-2.031-4.414-4.114-4.414-2.605 0-3.226.868-3.789 2.047l-78.808 189.914M1004.71 101.387l-32.64 84.074h-.57l-27.91-84.074zm-64.952-11.438-12.949-41.746c-2.34-7.637-3.512-14.414-3.512-19.121 0-9.68 13.824-11.758 21.754-11.758 2.648 0 3.215-1.758 3.215-5.566 0-2.95-.258-4.149-2.309-4.149-6.758 0-28.258 1.512-36.211 1.512-7.887 0-20.23-1.512-29.047-1.512-5.898 0-5.898.918-5.898 4.747v3.21c0 1.477 2.644 2.082 9.676 2.657 15.281 1.465 17.382 4.406 22.98 20.566l58.141 169.324c5.902 4.985 12.07 11.758 19.453 14.145l73.769-186.106c5-12.336 10.26-18.504 27.36-18.504 3.22 0 3.78-3.566 3.78-6.78 0-3.259-2.05-3.259-5.6-3.259-4.68 0-23.5 1.512-34.96 1.512-11.76 0-23.53-.594-35.26-1.512-4.38 0-4.74.918-4.74 5.059 0 3.2 1.79 4.656 5.92 4.656 4.42 0 18.79.899 18.79 7.969 0 2.316-1.16 7.031-5.29 17.316l-18.8 47.34h-70.262M1126.29 179.004c0 5.898-.36 7.363-1.51 9.707-2.62 5.019-15.6 15.566-20.55 15.898l-15.62.879c-1.15 0-1.5 2.918-1.5 5.266 0 1.48 0 3.824 1.5 3.824 9.11 0 16.18.578 23.53.578 13.49 0 34.99-1.14 40.24-1.765l89.1-107.551c13.52-16.477 26.76-31.758 47.9-52.95h1.18v129.376c0 19.355-7.04 22.343-16.46 22.617l-12.63.605c-1.18 0-1.79 2.918-1.79 4.961 0 1.785.95 4.707 2.69 4.707 6.44 0 21.72-1.457 36.14-1.457 13.25 0 27.31 1.457 35.6 1.457 1.48 0 1.75-1.14 1.75-2.363v-5.547c0-1.484-.57-1.758-2.62-1.758h-7.69c-20.26 0-20.26-10.32-20.26-35.293V0h-7.1l-158.7 181.359V46.426c0-25.266 3.47-28.211 28.8-29.102 1.2 0 2.03-2.629 2.03-4.98 0-2.344-.27-4.727-1.13-4.727-5.65 0-24.41 1.492-36.78 1.492-14.37 0-20.85-1.492-34.4-1.492-1.74 0-2.08 2.09-2.08 5.899 0 2.644.34 3.808 3.82 3.808 12.39 0 26.54 2.93 26.54 17.93v143.75M1582.99 132.277l-43.51 112.235h-.83l-37.27-112.235zm-86.72-15.273-17.28-55.715c-3.13-10.203-4.65-19.238-4.65-25.516 0-12.953 18.38-15.695 29.05-15.695 3.49 0 4.31-2.351 4.31-7.422 0-3.965-.44-5.515-3.18-5.515-8.99 0-37.64 1.98-48.28 1.98-10.52 0-27.05-1.98-38.82-1.98-7.87 0-7.87 1.16-7.87 6.265v4.32c0 1.961 3.52 2.743 12.98 3.543 20.42 1.946 23.19 5.887 30.66 27.461l77.65 225.965c7.81 6.664 16.02 15.715 25.84 18.832l98.47-248.34c6.69-16.464 13.77-24.718 36.47-24.718 4.36 0 5.09-4.696 5.09-9.031 0-4.297-2.69-4.297-7.39-4.297-6.32 0-31.38 1.98-46.75 1.98-15.63 0-31.36-.82-47.03-1.98-5.86 0-6.3 1.16-6.3 6.675 0 4.297 2.35 6.262 7.91 6.262 5.9 0 25.1 1.192 25.1 10.606 0 3.105-1.57 9.425-7.13 23.132l-25.09 63.188h-93.76M1907.96 215.156c9.11 0 18.49-.847 27.91-.847 7.38 0 14.99.847 22.34.847 4.41 0 5.29-1.14 5.29-2.058v-4.692c0-2.047-.88-3.523-2.09-3.523-2.05 0-5.25.597-8.81.597-17.07 0-17.07-8.527-17.07-27.648 0-16.746 3.26-126.687 3.26-142.86 0-8.214 4.13-17.648 16.77-17.648 11.76 0 13.18-.593 13.18-3.242 0-3.523-1.72-6.473-2.6-6.473-15.6 0-27.91 1.512-40.28 1.512-12.34 0-24.98-1.512-37.62-1.512-2.08 0-2.34 1.192-2.34 2.95v2.957c0 2.93 2.64 3.808 16.16 3.808 5.9 0 11.16 7.051 11.16 17.344 0 31.738-1.15 100.242-2.35 150.527-1.18.266-.88.266-.88.266-16.45-33.809-37.9-82.895-47.89-109.055L1834.4 3.79c-.22-.86-1.13-1.738-2.62-1.738-1.42 0-2.64 1.484-3.5 5.558-1.74 7.403-4.39 14.442-7.38 21.473l-55.55 135.254c-2.08 5-3.81 8.516-4.95 8.516-1.25 0-1.25-5.868-1.25-9.129 0-23.235-3.48-111.985-3.48-126.407 0-12.636 0-19.992 25.88-19.992 1.75 0 2.04-1.457 2.04-4.98 0-1.172-.29-4.735-1.47-4.735-4.14 0-18.51 1.512-34.4 1.512-16.71 0-33.21-1.512-37.35-1.512-.86 0-1.76.918-1.76 2.391v4.395c0 2.648 2.38 2.93 5.9 2.93 24.1 0 27.62 7.355 27.62 32.948 0 14.395 4.95 122.579 4.95 133.157 0 15.586-7.61 22.05-34.01 22.05-.91 0-1.52 1.446-1.52 3.231v3.809c0 1.496.9 2.636 2.4 2.636 11.14 0 21.75-1.457 33.47-1.457 7.34 0 14.99 1.457 22.36 1.457 2.09 0 4.14-4.715 5.56-8.523l63.52-151.977h1.39l67.71 160.5M2014.27 114.629c-21.24 12.656-29.76 24.434-29.76 47.305 0 36.777 29.97 57.336 69.67 57.336 11.19 0 27.06-3.79 37.08-8.215l2.05-36.758v-1.453c0-1.485-2.96-2.051-7.1-2.051-3.82 0-4.36 1.746-4.68 4.668-2.04 19.707-16.16 32.383-37.05 32.383-19.96 0-35.55-14.114-35.55-32.961 0-21.153 12.95-29.375 42.34-44.949 29.13-15.305 54.4-28.789 54.4-65.559 0-40.012-36.21-60.84-72.91-60.84-12.06 0-32.08 3.809-43.24 8.516-2.34 1.172-3.22 4.992-4.13 11.465l-3.52 27.628c0 1.747 5.9 1.747 7.65 1.747.95 0 1.78-.555 2.34-2.625C1998.64 27.93 2013.97 15 2037.46 15c20.59 0 40.25 17.93 40.25 37.89 0 19.122-10.85 30.587-26.13 39.688l-37.31 22.051M2228.36 39.184c0-21.778 14.67-21.778 32.91-21.778l1.79-1.445v-4.715c0-3.547-1.49-3.547-6.21-3.547-5.86 0-20.24 1.496-40.83 1.496-16.19 0-41.48-1.496-48.5-1.496-.63 2.09-1.18 3.547-1.18 5.285 0 .918.31 2.676 1.18 3.262l2.96 1.16h3.51c26.76 0 27.93 9.14 27.93 33.528v139.343l-.87 13.508h-39.39c-22.36 0-25.93-14.094-31.49-32.91-.56-1.777-1.76-2.648-3.51-2.648-4.17 0-6.73 1.183-6.73 2.921 0 5.008 3.48 32.344 3.48 55.586 0 1.153 4.12 1.153 8.25 1.153 9.41-12.649 12.33-12.649 24.95-12.649h109.35c20.59 0 26.49 6.192 33.84 15.305 2.09 0 8.8 0 8.8-2.656 0-2.356-5.87-26.438-6.46-47.629 0-3.203-.92-9.383-2.34-9.383-2.67 0-9.39 1.445-9.39 2.918l-1.17 14.727c-1.22 14.972-8.25 15.265-20.32 15.265h-40.56V39.184M2351.75 185.195c0 19.075-14.43 21.164-31.45 21.164-1.16 0-1.16 1.485-1.16 2.633v3.242c0 2.649 4.99 2.922 15.27 2.922 11.73 0 24.99-1.457 37.36-1.457 11.74 0 23.49 1.457 35.22 1.457h62.08c2.31 0 2.62-2.636 2.62-5.859v-35.879c0-1.172-.62-2.352-2.09-2.352-2.34 0-7.05-.273-7.34 3.231l-.9 9.133c-1.74 18.816-14.67 22.05-31.11 22.05h-30.31c-16.43 0-21.74-3.539-21.74-25.863v-53.219c0-.878 1.76-2.367 2.4-2.367l34.63 1.172c17.62.61 22.67 6.176 27.06 21.789.57 1.746 1.49 2.363 4.74 2.363 2.03 0 3.45-.351 3.45-1.796 0-6.18-1.72-19.707-1.72-29.383 0-15.891 1.72-24.414 1.72-29.407 0-1.765-2.89-3.535-4.68-3.535-2.33 0-4.38.891-4.99 3.848-1.46 7.89-1.46 13.484-2.91 17.598-1.52 4.414-5.05 6.484-13.86 6.789l-41.72.855c-4.12 0-4.12-1.441-4.12-3.496V40.82c0-21.14 15.58-21.726 35.87-21.726h15.88c15.59 0 26.45.308 33.81 4.722 6.5 3.793 15.57 21.72 18.77 29.075 3.87 0 8.83-.868 8.83-2.918 0-.903-.86-3.235-1.44-4.707l-8.25-29.692c-2.34-7.965-3.79-7.965-7.64-7.965-31.74 0-62.92 1.512-105.5 1.512-9.71 0-34.41-1.512-49.39-1.512-.91 0-1.79 2.95-1.79 4.735 0 2.344.59 4.98 1.79 4.98 25.54 1.192 32.61 3.836 32.61 30.88v136.991M2562.73 120.82c3.81-.3 7.36-.617 11.15-.617 23.49 0 52.93 8.254 52.93 42.942 0 25.839-17.64 42.617-43.5 42.617-20.02 0-20.58-4.696-20.58-13.516zm-26.45 62.618c0 14.667-.62 22.05-19.16 22.05h-12.07c-1.72 0-2.03 3.203-2.03 5.567 0 1.472.92 4.101 2.03 4.101 17.07 0 34.48-.859 51.5-.859 13.54 0 26.76.859 40.26.859 30 0 59.4-20 59.4-50.832 0-26.734-24.4-44.676-47.33-48.23v-.567c11.46-2.636 23.53-24.109 26.44-28.789l32.35-49.422c10.25-15.597 17.03-18.527 34.7-19.406l1.73-1.75V10.56c0-2.61-2.05-2.942-3.21-2.942-6.21 0-15.33.91-19.72.91-7.07 0-14.11-.91-21.14-.91-6.78 0-20 19.707-37.33 50.559-19.12 33.828-30.32 52.359-49.74 52.359-2.3 0-5.86 0-10.23-.613v-72.02c0-10.578 0-20.578 14.71-20.578 11.12 0 16.16 0 16.16-2.312 0-5.598-.86-7.395-5.35-7.395-15.29 0-27.88 1.504-40.54 1.504-4.97 0-37.56-1.504-41.72-1.504-1.76 0-2.36 3.82-2.36 6.2 0 2.628 1.16 3.226 7.03 3.507 20.27.89 25.62 3.828 25.62 24.13v141.984M2773.64 51.652c0-32.355 33.23-32.355 46.12-32.355 40.25 0 83.16 33.215 83.16 94.68 0 52.332-28.19 78.203-48.5 89.941-14.08 6.172-32.62 7.637-45.25 7.637-24.07 0-35.53-1.739-35.53-20.586zm-26.52 131.114c0 11.16-2.3 22.625-13.21 22.625-3.53 0-12.89-1.172-18.51-1.172-1.19 0-1.19 4.394-1.19 5.871 0 1.765 0 2.644 5.02 3.797 19.73 4.14 66.7 7.363 91.97 7.363 16.21 0 31.49-1.473 45.9-5.266 39.94-10.906 77.3-46.472 77.3-100.543 0-72.89-60.88-105.851-116.73-105.851-27.92 0-42.64 1.203-57.27 1.203-14.74 0-29.4-.883-44.12-1.203-1.16 0-1.46 2.644-1.46 4.734 0 2.055 1.46 4.973 2.63 4.973 9.44 1.191 17.03 1.77 22.37 5.312 4.39 2.942 7.3 7.657 7.3 17.032v141.125M3051.63 101.387l-32.66 84.074h-.61l-27.83-84.074zm-65.02-11.438-12.87-41.746c-2.41-7.637-3.54-14.414-3.54-19.121 0-9.68 13.81-11.758 21.78-11.758 2.6 0 3.18-1.758 3.18-5.566 0-2.95-.29-4.149-2.32-4.149-6.8 0-28.23 1.512-36.17 1.512-7.95 0-20.3-1.512-29.11-1.512-5.86 0-5.86.918-5.86 4.747v3.21c0 1.477 2.66 2.082 9.69 2.657 15.28 1.465 17.33 4.406 22.91 20.566l58.19 169.324c5.87 4.985 12.09 11.758 19.43 14.145l73.77-186.106c5.04-12.336 10.33-18.504 27.34-18.504 3.26 0 3.83-3.566 3.83-6.78 0-3.259-2.03-3.259-5.55-3.259-4.68 0-23.53 1.512-35 1.512-11.77 0-23.53-.594-35.31-1.512-4.37 0-4.69.918-4.69 5.059 0 3.2 1.78 4.656 5.86 4.656 4.44 0 18.85.899 18.85 7.969 0 2.316-1.17 7.031-5.29 17.316l-18.79 47.34h-70.33M3340.98 215.156c9.14 0 18.56-.847 27.95-.847 7.33 0 15 .847 22.34.847 4.4 0 5.26-1.14 5.26-2.058v-4.692c0-2.047-.86-3.523-1.99-3.523-2.07 0-5.34.597-8.85.597-17.03 0-17.03-8.527-17.03-27.648 0-16.746 3.2-126.687 3.2-142.86 0-8.214 4.14-17.648 16.78-17.648 11.72 0 13.24-.593 13.24-3.242 0-3.523-1.78-6.473-2.66-6.473-15.62 0-27.93 1.512-40.29 1.512-12.34 0-24.98-1.512-37.66-1.512-2.03 0-2.32 1.192-2.32 2.95v2.957c0 2.93 2.64 3.808 16.13 3.808 5.9 0 11.18 7.051 11.18 17.344 0 31.738-1.14 100.242-2.31 150.527-1.17.266-.92.266-.92.266-16.46-33.809-37.91-82.895-47.89-109.055L3267.53 3.79c-.32-.86-1.24-1.738-2.64-1.738-1.51 0-2.66 1.484-3.56 5.558-1.75 7.403-4.41 14.442-7.36 21.473l-55.55 135.254c-2.07 5-3.81 8.516-4.98 8.516-1.17 0-1.17-5.868-1.17-9.129 0-23.235-3.57-111.985-3.57-126.407 0-12.636 0-19.992 25.9-19.992 1.77 0 2.05-1.457 2.05-4.98 0-1.172-.28-4.735-1.51-4.735-4.06 0-18.47 1.512-34.37 1.512-16.78 0-33.23-1.512-37.31-1.512-.88 0-1.74.918-1.74 2.391v4.395c0 2.648 2.31 2.93 5.82 2.93 24.15 0 27.66 7.355 27.66 32.948 0 14.395 5 122.579 5 133.157 0 15.586-7.6 22.05-34.14 22.05-.82 0-1.46 1.446-1.46 3.231v3.809c0 1.496.91 2.636 2.38 2.636 11.17 0 21.74-1.457 33.57-1.457 7.31 0 14.92 1.457 22.29 1.457 2.07 0 4.12-4.715 5.6-8.523l63.46-151.977h1.5l67.58 160.5" transform="matrix(.13333 0 0 -.13333 0 95.387)"/><path style="fill:#231f20;fill-opacity:1;fill-rule:nonzero;stroke:none" d="m366.496 318.906.063 51.614-23.235-21.836s-13.554-13.899-44.207-21.797c-30.637-7.856-53.898-6.426-67.82-3.614-13.938 2.782-26.477 6.512-34.367 10.262-7.91 3.699-21.836 10.695-34.344 30.254-7.414 11.524-7.414 40.422-7.414 40.422l.555 53.859-4.09 91.141s13.797-.617 23.23-.652c11.582-.067 21.582 2.527 21.867 1.031.45-2.809.75-126.863.75-126.863s1.368-26.477 7.864-39.961c11.402-23.672 62.238-25.625 62.238-25.625s7.887-.957 25.562.425c17.618 1.36 52.071 6.45 63.204 27.336 0 0 7.91 8.821 10.769 58.985 2.981 52.539-4.051 104.551-4.051 104.551l49.258 2.265s-3.332-37.144-3.41-106.851c-.066-69.68 6.371-110.579 6.371-110.579zm-16.531-121.98-23.676-23.692-42.816 42.813-42.813-42.813-23.699 23.692 42.824 42.82-42.824 42.805 23.699 23.687 42.813-42.8 42.816 42.8 23.676-23.687-42.797-42.805zm-133.004 304.91 23.699 23.695 42.813-42.804 42.816 42.804 23.676-23.695-42.797-42.805 42.797-42.832-23.676-23.679-42.816 42.812-42.813-42.812-23.699 23.679 42.824 42.832zm0 157.559 23.699 23.703 42.813-42.813 42.816 42.813 23.676-23.703-42.797-42.801 42.797-42.824-23.676-23.692-42.816 42.813-42.813-42.813-23.699 23.692 42.824 42.824zM0 715.406V148.473h566.93v566.933H0" transform="matrix(.13333 0 0 -.13333 0 95.387)"/></svg>