<?xml version="1.0" encoding="utf-8"?>
<!-- Generator: Adobe Illustrator 19.2.0, SVG Export Plug-In . SVG Version: 6.00 Build 0)  -->
<svg version="1.1" id="Layer_1" xmlns="http://www.w3.org/2000/svg" xmlns:xlink="http://www.w3.org/1999/xlink" x="0px" y="0px"
	 viewBox="0 0 293.6 162.1" style="enable-background:new 0 0 293.6 162.1;" xml:space="preserve">
<g>
	<g>
		<path d="M35.3,64.9v28l13.3-17.6h8.6l-12,15.6l13.1,20.4h-8.9l-9.4-15.4l-4.6,5v10.4h-8V64.9H35.3z"/>
		<path d="M80.6,82.7h-8.2v18.4c0,3.4,1.7,4.9,4.4,4.9c1.1,0,2.1-0.2,3.1-0.6l0.7,4.9c-1.8,1-4,1.6-6.6,1.6c-6.8,0-9.6-4-9.6-11.2
			V83l-4.3-1.1v-5l4.8-0.4l2.1-8h5.5v8.2h8.2V82.7z"/>
		<path d="M107,75.3h7.9v36.1h-7l-0.4-3.4c-2.6,2.7-5.9,4-9.9,4c-7.3,0-11.4-5.3-11.4-13.6V75.3h8v23.1c0,4.8,2,7.2,6,7.2
			c3.1,0,5.5-1.6,6.9-3.4V75.3z"/>
	</g>
	<g>
		<path d="M164.9,47.7v10.2l4.9-6.4h3.1l-4.4,5.7l4.8,7.5h-3.3l-3.5-5.6l-1.7,1.8v3.8H162v-17H164.9z"/>
		<path d="M174.9,54.3c0.9-1.8,2.4-3.1,4.7-3.1c3.1,0,4.4,2,4.4,4.5V62c0,0.6,0.3,1,0.9,1h0.3v1.7c-0.4,0.1-0.9,0.2-1.4,0.2
			c-1.2,0-1.9-0.5-2.4-1.2c-0.9,0.9-2.1,1.3-3.4,1.3c-2.3,0-3.7-1.5-3.7-3.6c0-2.3,1.4-4.3,5.8-4.3h0.9v-1.3c0-1.6-0.7-2.3-1.9-2.3
			c-1,0-1.9,0.6-2.5,1.8L174.9,54.3z M181.2,61.9v-3h-0.9c-2.3,0-3,0.8-3,2.1c0,1.4,0.6,1.8,1.7,1.8
			C179.9,62.9,180.6,62.6,181.2,61.9z"/>
		<path d="M194.6,51.5h2.9v13.2h-2.6l-0.1-1.2c-0.9,1-2.2,1.5-3.6,1.5c-2.7,0-4.2-1.9-4.2-5v-8.5h2.9V60c0,1.7,0.7,2.7,2.2,2.7
			c1.1,0,2-0.6,2.5-1.2V51.5z"/>
		<path d="M203.4,64.7h-2.9V51.5h2.6l0.1,1.3c0.9-1,2.1-1.5,3.6-1.5c2.7,0,4.2,1.9,4.2,5v8.5h-2.9v-8.4c0-1.8-0.8-2.7-2.2-2.7
			c-1.1,0-2,0.5-2.5,1.3V64.7z"/>
		<path d="M213.7,54.3c0.9-1.8,2.4-3.1,4.7-3.1c3.1,0,4.4,2,4.4,4.5V62c0,0.6,0.3,1,0.9,1h0.3v1.7c-0.4,0.1-0.9,0.2-1.4,0.2
			c-1.2,0-1.9-0.5-2.4-1.2c-0.9,0.9-2.1,1.3-3.4,1.3c-2.3,0-3.7-1.5-3.7-3.6c0-2.3,1.4-4.3,5.8-4.3h0.9v-1.3c0-1.6-0.7-2.3-1.9-2.3
			c-1,0-1.9,0.6-2.5,1.8L213.7,54.3z M219.9,61.9v-3H219c-2.3,0-3,0.8-3,2.1c0,1.4,0.6,1.8,1.7,1.8
			C218.6,62.9,219.3,62.6,219.9,61.9z"/>
		<path d="M232.6,55c-0.5-1.2-1.5-1.6-2.5-1.6c-1.3,0-1.9,0.6-1.9,1.5c0,2.5,6.3,1.7,6.3,6.1c0,2.3-1.9,4-4.5,4
			c-2.2,0-3.8-0.9-4.7-2.9l1.8-1c0.6,1.3,1.8,1.8,2.8,1.8c1.2,0,1.8-0.6,1.8-1.7c0-2.6-6.3-1.7-6.3-6.1c0-2.1,1.6-3.8,4.5-3.8
			c2.1,0,3.6,1,4.4,2.9L232.6,55z"/>
		<path d="M169.3,74.5h2.9v13.2h-2.6l-0.1-1.2c-0.9,1-2.2,1.5-3.6,1.5c-2.7,0-4.2-1.9-4.2-5v-8.5h2.9V83c0,1.7,0.7,2.7,2.2,2.7
			c1.1,0,2-0.6,2.5-1.2V74.5z"/>
		<path d="M178.1,87.7h-2.9V74.5h2.6l0.1,1.3c0.9-1,2.1-1.5,3.6-1.5c2.7,0,4.2,1.9,4.2,5v8.5h-2.9v-8.4c0-1.8-0.8-2.7-2.2-2.7
			c-1.1,0-2,0.5-2.5,1.3V87.7z"/>
		<path d="M191.7,75v12.7h-2.9V75H191.7z M191.5,70.7v2.5h-2.5v-2.5H191.5z"/>
		<path d="M201.5,87.7h-3.2l-4.6-13.2h3.3l2.9,10.6l3-10.6h3.3L201.5,87.7z"/>
		<path d="M210.1,81.5V83c0,1.8,0.9,2.7,2.5,2.7c1.2,0,2-0.5,2.5-1.9l2.1,0.8c-0.8,2.3-2.3,3.4-4.9,3.4c-3.3,0-5.1-2.1-5.1-4.8V79
			c0-2.7,1.7-4.8,5.1-4.8c3.2,0,4.9,2.2,4.9,4.9v2.3H210.1z M210.1,79.7h4.5v-0.9c0-1.6-0.8-2.4-2.3-2.4c-1.6,0-2.3,0.9-2.3,2.5
			V79.7z"/>
		<path d="M226.7,77.3c-0.4-0.2-0.8-0.3-1.3-0.3c-1.7,0-2.7,1.3-2.9,3.4v7.4h-2.9V74.5h2.5l0.2,2.2c0.8-1.7,1.9-2.4,3.2-2.4
			c0.5,0,1.1,0.1,1.5,0.3L226.7,77.3z"/>
		<path d="M235.7,78c-0.5-1.2-1.5-1.6-2.5-1.6c-1.3,0-1.9,0.6-1.9,1.5c0,2.5,6.3,1.7,6.3,6.1c0,2.3-1.9,4-4.5,4
			c-2.2,0-3.8-0.9-4.7-2.9l1.8-1c0.6,1.3,1.8,1.8,2.8,1.8c1.2,0,1.8-0.6,1.8-1.7c0-2.6-6.3-1.7-6.3-6.1c0-2.1,1.6-3.8,4.5-3.8
			c2.1,0,3.6,1,4.4,2.9L235.7,78z"/>
		<path d="M242.9,75v12.7H240V75H242.9z M242.7,70.7v2.5h-2.5v-2.5H242.7z"/>
		<path d="M252.6,77.2h-3v6.7c0,1.2,0.6,1.8,1.6,1.8c0.4,0,0.8-0.1,1.1-0.2l0.3,1.8c-0.7,0.4-1.5,0.6-2.4,0.6
			c-2.5,0-3.5-1.5-3.5-4.1v-6.5l-1.6-0.4v-1.8l1.7-0.1l0.8-2.9h2v3h3V77.2z"/>
		<path d="M261.4,86.7c-1.1,2.7-2.5,3.8-5.2,4l-0.2-2c1.5-0.2,2.2-0.7,2.8-2.1l0.1-0.2l-5.2-11.8h3.2l3.4,8.9l2.8-8.9h3L261.4,86.7z
			"/>
		<path d="M283.7,83.2c0,2.7-1.8,4.8-5.3,4.8c-3.5,0-5.3-2.1-5.3-4.8v-4.1c0-2.7,1.8-4.8,5.3-4.8c3.5,0,5.3,2.1,5.3,4.8V83.2z
			 M276,83c0,1.7,0.8,2.7,2.4,2.7c1.7,0,2.4-1,2.4-2.7v-3.9c0-1.7-0.7-2.7-2.4-2.7c-1.6,0-2.4,1-2.4,2.7V83z"/>
		<path d="M292.5,77.2h-2.9v10.5h-2.9V77.2h-1.5v-2.1h1.5v-0.3c0-2.6,1.5-4.2,5.6-4.3l0.1,1.9c-2.3,0.1-2.9,0.7-2.9,2.3v0.3h3.1
			V77.2z"/>
		<path d="M168.3,100.2h-3v6.7c0,1.2,0.6,1.8,1.6,1.8c0.4,0,0.8-0.1,1.1-0.2l0.3,1.8c-0.7,0.4-1.5,0.6-2.4,0.6
			c-2.5,0-3.5-1.5-3.5-4.1v-6.5l-1.6-0.4v-1.8l1.7-0.1l0.8-2.9h2v3h3V100.2z"/>
		<path d="M173,104.5v1.5c0,1.8,0.9,2.7,2.5,2.7c1.2,0,2-0.5,2.5-1.9l2.1,0.8c-0.8,2.3-2.3,3.4-4.9,3.4c-3.3,0-5.1-2.1-5.1-4.8V102
			c0-2.7,1.7-4.8,5.1-4.8c3.2,0,4.9,2.2,4.9,4.9v2.3H173z M173,102.7h4.5v-0.9c0-1.6-0.8-2.4-2.3-2.4c-1.6,0-2.3,0.9-2.3,2.5V102.7z
			"/>
		<path d="M189.7,101.2c-0.4-1.2-1.3-1.7-2.3-1.7c-1.5,0-2.4,0.8-2.4,2.6v3.8c0,1.8,0.9,2.7,2.4,2.7c1.1,0,1.9-0.5,2.3-1.8l2.1,0.8
			c-0.8,2-2.3,3.2-4.7,3.2c-3.3,0-5-2.2-5-4.8v-4.1c0-2.7,1.7-4.8,5-4.8c2.2,0,3.9,1.1,4.6,3.2L189.7,101.2z"/>
		<path d="M196.8,110.7h-2.9v-17h2.9v4.9c0.9-0.9,2.1-1.3,3.5-1.3c2.7,0,4.2,1.9,4.2,5v8.5h-2.9v-8.4c0-1.8-0.7-2.7-2.2-2.7
			c-1.1,0-2,0.6-2.5,1.2V110.7z"/>
		<path d="M210.1,110.7h-2.9V97.5h2.6l0.1,1.3c0.9-1,2.1-1.5,3.6-1.5c2.7,0,4.2,1.9,4.2,5v8.5h-2.9v-8.4c0-1.8-0.8-2.7-2.2-2.7
			c-1.1,0-2,0.5-2.5,1.3V110.7z"/>
		<path d="M230.6,106.2c0,2.7-1.8,4.8-5.3,4.8s-5.3-2.1-5.3-4.8v-4.1c0-2.7,1.8-4.8,5.3-4.8c3.5,0,5.3,2.1,5.3,4.8V106.2z
			 M222.9,106c0,1.7,0.8,2.7,2.4,2.7c1.7,0,2.4-1,2.4-2.7v-3.9c0-1.7-0.7-2.7-2.4-2.7c-1.6,0-2.4,1-2.4,2.7V106z"/>
		<path d="M236.4,93.7v17h-2.9v-17H236.4z"/>
		<path d="M249.8,106.2c0,2.7-1.8,4.8-5.3,4.8s-5.3-2.1-5.3-4.8v-4.1c0-2.7,1.8-4.8,5.3-4.8c3.5,0,5.3,2.1,5.3,4.8V106.2z
			 M242.1,106c0,1.7,0.8,2.7,2.4,2.7c1.7,0,2.4-1,2.4-2.7v-3.9c0-1.7-0.7-2.7-2.4-2.7c-1.6,0-2.4,1-2.4,2.7V106z"/>
		<path d="M254.9,105.1c-0.5,0.3-0.8,0.5-0.8,0.9c0,0.5,0.3,0.8,1.4,0.8h3c3.2,0,4.3,1.2,4.3,3.1c0,2.5-2.1,3.9-5.7,3.9
			c-3.6,0-5-1.2-5-3c0-0.8,0.3-1.6,1-2.1c-0.8-0.4-1.3-1.2-1.3-2.1c0-0.9,0.5-1.7,1.7-2.2c-0.8-0.7-1.2-1.7-1.2-3
			c0-2.7,1.5-4.1,4.8-4.1c1.2,0,2.2,0.2,3,0.5c0.7-0.4,1.2-1,1.5-1.6l1.3,0.6c-0.2,1-0.6,1.8-1.3,2.4c0.3,0.6,0.4,1.3,0.4,2.1
			c0,2.6-1.5,4-4.9,4C256.3,105.3,255.5,105.3,254.9,105.1z M255.2,109c-0.4,0.3-0.7,0.8-0.7,1.4c0,1,0.9,1.4,2.7,1.4
			c2.6,0,3.1-0.8,3.1-1.6c0-0.9-0.4-1.2-2-1.2H255.2z M257.1,103.4c1.6,0,2.1-0.5,2.1-2c0-1.6-0.5-2.1-2.1-2.1
			c-1.6,0-2.1,0.5-2.1,2.1C255.1,103,255.5,103.4,257.1,103.4z"/>
		<path d="M271.5,109.7c-1.1,2.7-2.5,3.8-5.2,4l-0.2-2c1.5-0.2,2.2-0.7,2.8-2.1l0.1-0.2l-5.2-11.8h3.2l3.4,8.9l2.8-8.9h3
			L271.5,109.7z"/>
	</g>
	<path d="M292.5,119.5H142V0h-142v162.1h142v-38.7h150.5V119.5z M134.2,154.3H7.8V7.8h126.4v111.7H26.8v3.9h107.4V154.3z"/>
	<g>
		<path d="M21.3,132.8v13.8h-3v-9.3h-2.8v-2.1h1.2c1.6,0,2-0.4,2.2-2.5H21.3z"/>
		<path d="M27.5,144.4c1.3,0,2-0.7,2-2.1v-1.6c-0.6,0.5-1.3,0.7-2.3,0.7c-2.4,0-3.9-1.3-3.9-4.1c0-2.9,1.6-4.6,4.6-4.6
			c2.9,0,4.5,2,4.5,4.4v5.1c0,2.9-1.8,4.7-4.6,4.7c-2.2,0-3.6-1-4.2-3l1.9-1.1C25.7,143.9,26.4,144.4,27.5,144.4z M29.4,138v-1.2
			c0-1.2-0.5-1.7-1.7-1.7c-1.2,0-1.7,0.6-1.7,2c0,1.5,0.5,2,1.6,2C28.5,139.1,29.4,138.8,29.4,138z"/>
		<path d="M42.6,136.4c0,4.7-4.8,5-5.6,7.8h5.6v2.4h-8.8l0-1.3c0.2-4.4,5.9-6,5.9-8.7c0-0.9-0.5-1.5-1.6-1.5c-1,0-1.8,0.7-2.1,2.1
			l-2.2-0.8c0.6-2.1,2.1-3.8,4.6-3.8C41.3,132.7,42.6,134.4,42.6,136.4z"/>
		<path d="M52.8,136.4c0,4.7-4.8,5-5.6,7.8h5.6v2.4H44l0-1.3c0.2-4.4,5.9-6,5.9-8.7c0-0.9-0.5-1.5-1.6-1.5c-1,0-1.8,0.7-2.1,2.1
			l-2.2-0.8c0.6-2.1,2.1-3.8,4.6-3.8C51.5,132.7,52.8,134.4,52.8,136.4z"/>
	</g>
</g>
</svg>
