<svg viewBox="-160 -160 320 320" width="320" height="320" xmlns="http://www.w3.org/2000/svg" xml:space="preserve">

<g id="backlights">
<path data-category="self-direction-thought" d="M 0,0 L 0,-160 A 160 160 0 0 1 49.44 -152.83 z" fill="white" />
<path data-category="self-direction-action" d="M 0,0 L 49.44,-152.83 A 160 160 0 0 1 94.05 -129.44 z" fill="white" />
<path data-category="stimulation" d="M 0,0 L 94.05,-129.44 A 160 160 0 0 1 129.44 -94.04 z" fill="white" />
<path data-category="hedonism" d="M 0,0 L 129.44,-94.04 A 160 160 0 0 1 152.17 -49.44 z" fill="white" />
<path data-category="achievement" d="M 0,0 L 152.17,-49.44 A 160 160 0 0 1 160 0 z" fill="white" />
<path data-category="power-dominance" d="M 0,0 L 160,0 A 160 160 0 0 1 152.17 49.44 z" fill="white" />
<path data-category="power-resources" d="M 0,0 L 152.17,49.44 A 160 160 0 0 1 129.44 94.04" fill="white" />
<path data-category="face" d="M 0,0 L 129.44,94.04 A 160 160 0 0 1 94.05 129.44 z" fill="white" />
<path data-category="security-personal" d="M 0,0 L 94.05,129.44 A 160 160 0 0 1 49.44 152.83 z" fill="white" />
<path data-category="security-societal" d="M 0,0 L 49.44,152.83 A 160 160 0 0 1 0 160 z" fill="white" />
<path data-category="tradition" d="M 0,0 L -49.44,152.83 A 160 160 0 0 0 0 160 z" fill="white" />
<path data-category="conformity-rules" d="M 0,0 L -94.05,129.44 A 160 160 0 0 0 -49.44 152.83 z" fill="white" />
<path data-category="conformity-interpersonal" d="M 0,0 L -129.44,94.04 A 160 160 0 0 0 -94.05 129.44 z" fill="white" />
<path data-category="humility" d="M 0,0 L -152.17,49.44 A 160 160 0 0 0 -129.44 94.04" fill="white" />
<path data-category="benevolence-caring" d="M 0,0 L -160,0 A 160 160 0 0 0 -152.17 49.44 z" fill="white" />
<path data-category="benevolence-dependability" d="M 0,0 L -152.17,-49.44 A 160 160 0 0 0 -160 0 z" fill="white" />
<path data-category="universalism-concern" d="M 0,0 L -129.44,-94.04 A 160 160 0 0 0 -152.17 -49.44 z" fill="white" />
<path data-category="universalism-nature" d="M 0,0 L -94.05,-129.44 A 160 160 0 0 0 -129.44 -94.04 z" fill="white" />
<path data-category="universalism-tolerance" d="M 0,0 L -49.44,-152.83 A 160 160 0 0 0 -94.05 -129.44 z" fill="white" />
<path data-category="universalism-objectivity" d="M 0,0 L 0,-160 A 160 160 0 0 0 -49.44 -152.83 z" fill="white" />
</g>

<g id="outline">
<circle cx="0" cy="0" r="160" fill="none" stroke="black" />
<line x1="0" y1="0" x2="0" y2="-160" stroke="black" />
<line x1="0" y1="0" x2="43.88" y2="-135.64" stroke="black" />
<line x1="0" y1="0" x2="94.05" y2="-129.44" stroke="black" />
<line x1="0" y1="0" x2="129.44" y2="-94.04" stroke="black" />
<line x1="0" y1="0" x2="152.17" y2="-49.44" stroke="black" />
<line x1="0" y1="0" x2="160" y2="0" stroke="black" />
<line x1="0" y1="0" x2="135.05" y2="43.88" stroke="black" />
<line x1="0" y1="0" x2="129.44" y2="94.04" stroke="black" />
<line x1="0" y1="0" x2="94.05" y2="129.44" stroke="black" />
<line x1="0" y1="0" x2="43.88" y2="135.64" stroke="black" />
<line x1="0" y1="0" x2="0" y2="160" stroke="black" />
<line x1="0" y1="0" x2="-49.44" y2="152.83" stroke="black" />
<line x1="0" y1="0" x2="-83.47" y2="114.88" stroke="black" />
<line x1="0" y1="0" x2="-129.44" y2="94.05" stroke="black" />
<line x1="0" y1="0" x2="-152.83" y2="49.44" stroke="black" />
<line x1="0" y1="0" x2="-142" y2="0" stroke="black" />
<line x1="0" y1="0" x2="-152.83" y2="-49.44" stroke="black" />
<line x1="0" y1="0" x2="-114.88" y2="-83.47" stroke="black" />
<line x1="0" y1="0" x2="-83.47" y2="-114.88" stroke="black" />
<line x1="0" y1="0" x2="-43.88" y2="-135.64" stroke="black" />
</g>

<g id="labels" style="font-size: 14px; font-family: Arial,Helvetica Neue,Helvetica,sans-serif;">
<text text-anchor="middle"><textPath path="M 0,-146 A 146 146 0 0 1 85.82 -118.11" startOffset="47.12">Self-direction:</textPath></text>
<text text-anchor="middle"><textPath path="M 156,0 A 156 156 0 0 1 126.20 91.69" side="right" startOffset="47.12">Power:</textPath></text>
<text text-anchor="middle"><textPath path="M 91.69,126.20 A 156 156 0 0 1 0 156" side="right" startOffset="47.12">Security:</textPath></text>
<text text-anchor="middle"><textPath path="M -48.20,149.01 A 156 156 0 0 1 -126.20 91.69" side="right" startOffset="47.12">Conformity:</textPath></text>
<text text-anchor="middle"><textPath path="M -139.46,45.11 A 146 146 0 0 1 -139.46 -45.11" startOffset="47.12">Benevolence:</textPath></text>
<text text-anchor="middle"><textPath path="M -139.46,-45.11 A 146 146 0 0 1 0 -146" startOffset="94.25">Universalism:</textPath></text>
<text transform="translate(134 5) rotate(-81 -134 -5)" text-anchor="end">thought</text>
<text transform="translate(134 5) rotate(-63 -134 -5)" text-anchor="end">action</text>
<text transform="translate(155 5) rotate(-45 -155 -5)" text-anchor="end">Stimulation</text>
<text transform="translate(155 5) rotate(-27 -155 -5)" text-anchor="end">Hedonism</text>
<text transform="translate(155 5) rotate(-9 -155 -5)" text-anchor="end">Achievement</text>
<text transform="translate(134 5) rotate(9 -134 -5)" text-anchor="end">dominance</text>
<text transform="translate(134 5) rotate(27 -134 -5)" text-anchor="end">resources</text>
<text transform="translate(155 5) rotate(45 -155 -5)" text-anchor="end">Face</text>
<text transform="translate(134 5) rotate(63 -134 -5)" text-anchor="end">personal</text>
<text transform="translate(134 5) rotate(81 -134 -5)" text-anchor="end">societal</text>
<text transform="translate(-155 5) rotate(-81 155 -5)" text-anchor="start">Tradition</text>
<text transform="translate(-134 5) rotate(-63 134 -5)" text-anchor="start">rules</text>
<text transform="translate(-134 5) rotate(-45 134 -5)" text-anchor="start">interpersonal</text>
<text transform="translate(-155 5) rotate(-27 155 -5)" text-anchor="start">Humility</text>
<text transform="translate(-134 5) rotate(-9 134 -5)" text-anchor="start">caring</text>
<text transform="translate(-134 5) rotate(9 134 -5)" text-anchor="start">dependability</text>
<text transform="translate(-134 5) rotate(27 134 -5)" text-anchor="start">concern</text>
<text transform="translate(-134 5) rotate(45 134 -5)" text-anchor="start">nature</text>
<text transform="translate(-134 5) rotate(63 134 -5)" text-anchor="start">tolerance</text>
<text transform="translate(-134 5) rotate(81 134 -5)" text-anchor="start">objectivity</text>
</g>

<g id="interaction">
<path data-category="self-direction-thought" d="M 0,0 L 0,-160 A 160 160 0 0 1 49.44 -152.83 z" fill="white" />
<path data-category="self-direction-action" d="M 0,0 L 49.44,-152.83 A 160 160 0 0 1 94.05 -129.44 z" fill="white" />
<path data-category="stimulation" d="M 0,0 L 94.05,-129.44 A 160 160 0 0 1 129.44 -94.04 z" fill="white" />
<path data-category="hedonism" d="M 0,0 L 129.44,-94.04 A 160 160 0 0 1 152.17 -49.44 z" fill="white" />
<path data-category="achievement" d="M 0,0 L 152.17,-49.44 A 160 160 0 0 1 160 0 z" fill="white" />
<path data-category="power-dominance" d="M 0,0 L 160,0 A 160 160 0 0 1 152.17 49.44 z" fill="white" />
<path data-category="power-resources" d="M 0,0 L 152.17,49.44 A 160 160 0 0 1 129.44 94.04" fill="white" />
<path data-category="face" d="M 0,0 L 129.44,94.04 A 160 160 0 0 1 94.05 129.44 z" fill="white" />
<path data-category="security-personal" d="M 0,0 L 94.05,129.44 A 160 160 0 0 1 49.44 152.83 z" fill="white" />
<path data-category="security-societal" d="M 0,0 L 49.44,152.83 A 160 160 0 0 1 0 160 z" fill="white" />
<path data-category="tradition" d="M 0,0 L -49.44,152.83 A 160 160 0 0 0 0 160 z" fill="white" />
<path data-category="conformity-rules" d="M 0,0 L -94.05,129.44 A 160 160 0 0 0 -49.44 152.83 z" fill="white" />
<path data-category="conformity-interpersonal" d="M 0,0 L -129.44,94.04 A 160 160 0 0 0 -94.05 129.44 z" fill="white" />
<path data-category="humility" d="M 0,0 L -152.17,49.44 A 160 160 0 0 0 -129.44 94.04" fill="white" />
<path data-category="benevolence-caring" d="M 0,0 L -160,0 A 160 160 0 0 0 -152.17 49.44 z" fill="white" />
<path data-category="benevolence-dependability" d="M 0,0 L -152.17,-49.44 A 160 160 0 0 0 -160 0 z" fill="white" />
<path data-category="universalism-concern" d="M 0,0 L -129.44,-94.04 A 160 160 0 0 0 -152.17 -49.44 z" fill="white" />
<path data-category="universalism-nature" d="M 0,0 L -94.05,-129.44 A 160 160 0 0 0 -129.44 -94.04 z" fill="white" />
<path data-category="universalism-tolerance" d="M 0,0 L -49.44,-152.83 A 160 160 0 0 0 -94.05 -129.44 z" fill="white" />
<path data-category="universalism-objectivity" d="M 0,0 L 0,-160 A 160 160 0 0 0 -49.44 -152.83 z" fill="white" />
</g>

</svg>
