<svg viewBox="-160 -160 320 320" width="320" height="320" xmlns="http://www.w3.org/2000/svg" xml:space="preserve">

<g id="backlights">
<path data-category="self-direction-thought" d="M 0,0 L 0,-160 A 160 160 0 0 1 49.44 -152.83 z" fill="blue" fill-opacity="1" />
<path data-category="self-direction-action" d="M 0,0 L 49.44,-152.83 A 160 160 0 0 1 94.05 -129.44 z" fill="red" fill-opacity="1" />
<path data-category="stimulation" d="M 0,0 L 94.05,-129.44 A 160 160 0 0 1 129.44 -94.04 z" fill="blue" fill-opacity="1" />
<path data-category="hedonism" d="M 0,0 L 129.44,-94.04 A 160 160 0 0 1 152.17 -49.44 z" fill="red" fill-opacity="1" />
<path data-category="achievement" d="M 0,0 L 152.17,-49.44 A 160 160 0 0 1 160 0 z" fill="blue" fill-opacity="1" />
<path data-category="power-dominance" d="M 0,0 L 160,0 A 160 160 0 0 1 152.17 49.44 z" fill="red" fill-opacity="1" />
<path data-category="power-resources" d="M 0,0 L 152.17,49.44 A 160 160 0 0 1 129.44 94.04" fill="blue" fill-opacity="1" />
<path data-category="face" d="M 0,0 L 129.44,94.04 A 160 160 0 0 1 94.05 129.44 z" fill="red" fill-opacity="1" />
<path data-category="security-personal" d="M 0,0 L 94.05,129.44 A 160 160 0 0 1 49.44 152.83 z" fill="blue" fill-opacity="1" />
<path data-category="security-societal" d="M 0,0 L 49.44,152.83 A 160 160 0 0 1 0 160 z" fill="red" fill-opacity="1" />
<path data-category="tradition" d="M 0,0 L -49.44,152.83 A 160 160 0 0 0 0 160 z" fill="red" fill-opacity="1" />
<path data-category="conformity-rules" d="M 0,0 L -94.05,129.44 A 160 160 0 0 0 -49.44 152.83 z" fill="blue" fill-opacity="1" />
<path data-category="conformity-interpersonal" d="M 0,0 L -129.44,94.04 A 160 160 0 0 0 -94.05 129.44 z" fill="red" fill-opacity="1" />
<path data-category="humility" d="M 0,0 L -152.17,49.44 A 160 160 0 0 0 -129.44 94.04" fill="blue" fill-opacity="1" />
<path data-category="benevolence-caring" d="M 0,0 L -160,0 A 160 160 0 0 0 -152.17 49.44 z" fill="red" fill-opacity="1" />
<path data-category="benevolence-dependability" d="M 0,0 L -152.17,-49.44 A 160 160 0 0 0 -160 0 z" fill="blue" fill-opacity="1" />
<path data-category="universalism-concern" d="M 0,0 L -129.44,-94.04 A 160 160 0 0 0 -152.17 -49.44 z" fill="red" fill-opacity="1" />
<path data-category="universalism-nature" d="M 0,0 L -94.05,-129.44 A 160 160 0 0 0 -129.44 -94.04 z" fill="blue" fill-opacity="1" />
<path data-category="universalism-tolerance" d="M 0,0 L -49.44,-152.83 A 160 160 0 0 0 -94.05 -129.44 z" fill="red" fill-opacity="1" />
<path data-category="universalism-objectivity" d="M 0,0 L 0,-160 A 160 160 0 0 0 -49.44 -152.83 z" fill="green" fill-opacity="1" />
</g>

<g id="outline">
<circle cx="0" cy="0" r="160" fill="none" stroke="black" />
</g>

<g id="labels">
<text text-anchor="middle"><textPath path="M 0,-150 A 150 150 0 0 1 88.17 -121.35" startOffset="47.12" style="font-size: 10px; line-height: 10px">Self-direction:</textPath></text>
<text transform="translate(140 0) rotate(-81 -140 -5)" text-anchor="end" style="font-size: 10px; line-height: 10px">thought</text>
<text transform="translate(140 0) rotate(-63 -140 -5)" text-anchor="end" style="font-size: 10px; line-height: 10px">action</text>
</g>

</svg>
